<svg width="55" height="34" viewBox="0 0 55 34" fill="none" xmlns="http://www.w3.org/2000/svg">
<path d="M4.199 13.17C3.519 13.17 2.84467 13.051 2.176 12.813C1.50733 12.575 1.02567 12.3087 0.731 12.014L1.632 10.399C1.87 10.6143 2.23833 10.841 2.737 11.079C3.247 11.3057 3.73433 11.419 4.199 11.419C4.79967 11.419 5.287 11.2773 5.661 10.994C6.04633 10.7107 6.239 10.3197 6.239 9.821C6.239 9.43567 6.137 9.10133 5.933 8.818C5.729 8.53467 5.47967 8.30233 5.185 8.121C4.89033 7.92833 4.471 7.696 3.927 7.424C3.281 7.10667 2.839 6.86867 2.601 6.71C1.50167 5.97333 0.952 4.95333 0.952 3.65C0.952 2.57333 1.309 1.75167 2.023 1.185C2.737 0.606999 3.638 0.317999 4.726 0.317999C5.89333 0.317999 6.885 0.652333 7.701 1.321L6.8 2.868C6.58467 2.64133 6.27867 2.44867 5.882 2.29C5.49667 2.12 5.083 2.035 4.641 2.035C4.07433 2.035 3.62667 2.16533 3.298 2.426C2.98067 2.67533 2.822 3.04933 2.822 3.548C2.822 3.89933 2.924 4.21667 3.128 4.5C3.332 4.772 3.587 5.01 3.893 5.214C4.21033 5.418 4.63533 5.66733 5.168 5.962C5.678 6.24533 6.069 6.472 6.341 6.642C6.613 6.80067 6.868 6.99333 7.106 7.22C7.43467 7.51467 7.701 7.866 7.905 8.274C8.109 8.682 8.211 9.12967 8.211 9.617C8.211 10.3763 8.03533 11.0223 7.684 11.555C7.344 12.0877 6.868 12.49 6.256 12.762C5.65533 13.034 4.96967 13.17 4.199 13.17ZM10.8186 6.693H9.44164V5.197H10.8186V2.018L12.6716 1.61V5.197H14.4736V6.693H12.6716V13H10.8186V6.693ZM19.6038 13.17C18.7991 13.17 18.0851 12.9887 17.4618 12.626C16.8385 12.2633 16.3568 11.7703 16.0168 11.147C15.6768 10.5237 15.5068 9.83233 15.5068 9.073C15.5068 8.325 15.6711 7.63933 15.9998 7.016C16.3398 6.39267 16.8215 5.89967 17.4448 5.537C18.0681 5.17433 18.7878 4.993 19.6038 4.993C20.4198 4.993 21.1338 5.17433 21.7458 5.537C22.3691 5.89967 22.8451 6.39267 23.1738 7.016C23.5138 7.63933 23.6838 8.325 23.6838 9.073C23.6838 9.83233 23.5138 10.5237 23.1738 11.147C22.8338 11.7703 22.3521 12.2633 21.7288 12.626C21.1168 12.9887 20.4085 13.17 19.6038 13.17ZM19.6548 11.674C20.3121 11.674 20.8278 11.4303 21.2018 10.943C21.5871 10.4557 21.7798 9.84367 21.7798 9.107C21.7798 8.37033 21.5758 7.75267 21.1678 7.254C20.7598 6.744 20.2215 6.489 19.5528 6.489C18.9068 6.489 18.3855 6.73833 17.9888 7.237C17.6035 7.73567 17.4108 8.359 17.4108 9.107C17.4108 9.83233 17.6205 10.4443 18.0398 10.943C18.4591 11.4303 18.9975 11.674 19.6548 11.674ZM25.6445 5.197H27.4465L27.4635 6.625C27.6788 6.149 28.0188 5.758 28.4835 5.452C28.9482 5.146 29.4922 4.993 30.1155 4.993C30.9202 4.993 31.5378 5.163 31.9685 5.503C32.3992 5.83167 32.6882 6.29633 32.8355 6.897C32.9828 7.49767 33.0565 8.27967 33.0565 9.243V13H31.2205V9.294C31.2205 8.308 31.1242 7.59967 30.9315 7.169C30.7388 6.727 30.3422 6.506 29.7415 6.506C29.4015 6.506 29.0558 6.61367 28.7045 6.829C28.3532 7.033 28.0585 7.33333 27.8205 7.73C27.5938 8.12667 27.4805 8.59133 27.4805 9.124V13H25.6445V5.197ZM39.1118 13.17C38.1825 13.17 37.4062 12.9887 36.7828 12.626C36.1595 12.252 35.7005 11.759 35.4058 11.147C35.1112 10.5237 34.9638 9.84367 34.9638 9.107C34.9638 8.27967 35.1338 7.55433 35.4738 6.931C35.8252 6.30767 36.3068 5.83167 36.9188 5.503C37.5308 5.163 38.2222 4.993 38.9928 4.993C40.1942 4.993 41.0838 5.32733 41.6618 5.996C42.2512 6.65333 42.5458 7.58267 42.5458 8.784C42.5458 9.09 42.5288 9.40733 42.4948 9.736H36.8848C37.0095 10.4273 37.2532 10.926 37.6158 11.232C37.9898 11.538 38.5055 11.691 39.1628 11.691C39.7068 11.691 40.1545 11.6457 40.5058 11.555C40.8572 11.4643 41.1802 11.3397 41.4748 11.181L42.0358 12.49C41.7525 12.6713 41.3672 12.83 40.8798 12.966C40.3925 13.102 39.8032 13.17 39.1118 13.17ZM40.7608 8.461C40.7722 7.75833 40.6192 7.26533 40.3018 6.982C39.9845 6.68733 39.5312 6.54 38.9418 6.54C37.7518 6.54 37.0662 7.18033 36.8848 8.461H40.7608ZM4.539 27.169L3.757 25.401L3.4 27.169L2.244 33H0.357L2.941 20.505H3.145L6.579 27.254L7.599 29.515L8.619 27.254L11.985 20.505H12.172L14.858 33H12.988L11.73 27.169L11.356 25.401L10.676 27.169L7.65 33H7.548L4.539 27.169ZM19.865 33.17C19.1624 33.17 18.5107 33.0057 17.91 32.677C17.3207 32.337 16.8447 31.861 16.482 31.249C16.1307 30.6257 15.955 29.9003 15.955 29.073C15.955 28.257 16.108 27.543 16.414 26.931C16.7314 26.319 17.179 25.843 17.757 25.503C18.335 25.163 19.015 24.993 19.797 24.993C20.2504 24.993 20.6754 25.0723 21.072 25.231C21.4687 25.3897 21.803 25.588 22.075 25.826C22.347 26.0527 22.5284 26.2793 22.619 26.506L22.653 25.197H24.404V33H22.67L22.636 31.623C22.4434 32.031 22.092 32.3937 21.582 32.711C21.072 33.017 20.4997 33.17 19.865 33.17ZM20.171 31.64C20.817 31.64 21.361 31.419 21.803 30.977C22.245 30.5237 22.466 29.9343 22.466 29.209V29.09C22.466 28.6027 22.364 28.1663 22.16 27.781C21.956 27.3957 21.6784 27.0953 21.327 26.88C20.9757 26.6647 20.5904 26.557 20.171 26.557C19.4457 26.557 18.8847 26.795 18.488 27.271C18.0914 27.7357 17.893 28.342 17.893 29.09C17.893 29.8493 18.0857 30.467 18.471 30.943C18.8677 31.4077 19.4344 31.64 20.171 31.64ZM26.822 25.197H28.658V26.727C28.8393 26.2057 29.134 25.7863 29.542 25.469C29.95 25.1517 30.4147 24.993 30.936 24.993C31.2987 24.993 31.548 25.027 31.684 25.095L31.429 26.948C31.327 26.88 31.106 26.846 30.766 26.846C30.2333 26.846 29.746 27.016 29.304 27.356C28.8733 27.696 28.658 28.24 28.658 28.988V33H26.822V25.197ZM40.0374 33H37.8784L36.2974 30.45L35.8554 29.583L34.8354 30.688V33H33.0674V20.505H34.8184V27.356L34.7844 28.682L37.7594 25.197H40.0204L37.0794 28.461L40.0374 33ZM45.188 33.17C44.2587 33.17 43.4823 32.9887 42.859 32.626C42.2357 32.252 41.7767 31.759 41.482 31.147C41.1873 30.5237 41.04 29.8437 41.04 29.107C41.04 28.2797 41.21 27.5543 41.55 26.931C41.9013 26.3077 42.383 25.8317 42.995 25.503C43.607 25.163 44.2983 24.993 45.069 24.993C46.2703 24.993 47.16 25.3273 47.738 25.996C48.3273 26.6533 48.622 27.5827 48.622 28.784C48.622 29.09 48.605 29.4073 48.571 29.736H42.961C43.0857 30.4273 43.3293 30.926 43.692 31.232C44.066 31.538 44.5817 31.691 45.239 31.691C45.783 31.691 46.2307 31.6457 46.582 31.555C46.9333 31.4643 47.2563 31.3397 47.551 31.181L48.112 32.49C47.8287 32.6713 47.4433 32.83 46.956 32.966C46.4687 33.102 45.8793 33.17 45.188 33.17ZM46.837 28.461C46.8483 27.7583 46.6953 27.2653 46.378 26.982C46.0607 26.6873 45.6073 26.54 45.018 26.54C43.828 26.54 43.1423 27.1803 42.961 28.461H46.837ZM51.2268 26.693H49.8498V25.197H51.2268V22.018L53.0798 21.61V25.197H54.8818V26.693H53.0798V33H51.2268V26.693Z" fill="#262626"/>
</svg>
