<svg width="97" height="56" viewBox="0 0 97 56" fill="none" xmlns="http://www.w3.org/2000/svg">
<path d="M7.41 23.3C6.21 23.3 5.02 23.09 3.84 22.67C2.66 22.25 1.81 21.78 1.29 21.26L2.88 18.41C3.3 18.79 3.95 19.19 4.83 19.61C5.73 20.01 6.59 20.21 7.41 20.21C8.47 20.21 9.33 19.96 9.99 19.46C10.67 18.96 11.01 18.27 11.01 17.39C11.01 16.71 10.83 16.12 10.47 15.62C10.11 15.12 9.67 14.71 9.15 14.39C8.63 14.05 7.89 13.64 6.93 13.16C5.79 12.6 5.01 12.18 4.59 11.9C2.65 10.6 1.68 8.8 1.68 6.5C1.68 4.6 2.31 3.15 3.57 2.15C4.83 1.13 6.42 0.619998 8.34 0.619998C10.4 0.619998 12.15 1.21 13.59 2.39L12 5.12C11.62 4.72 11.08 4.38 10.38 4.1C9.7 3.8 8.97 3.65 8.19 3.65C7.19 3.65 6.4 3.88 5.82 4.34C5.26 4.78 4.98 5.44 4.98 6.32C4.98 6.94 5.16 7.5 5.52 8C5.88 8.48 6.33 8.9 6.87 9.26C7.43 9.62 8.18 10.06 9.12 10.58C10.02 11.08 10.71 11.48 11.19 11.78C11.67 12.06 12.12 12.4 12.54 12.8C13.12 13.32 13.59 13.94 13.95 14.66C14.31 15.38 14.49 16.17 14.49 17.03C14.49 18.37 14.18 19.51 13.56 20.45C12.96 21.39 12.12 22.1 11.04 22.58C9.98 23.06 8.77 23.3 7.41 23.3ZM19.0917 11.87H16.6617V9.23H19.0917V3.62L22.3617 2.9V9.23H25.5417V11.87H22.3617V23H19.0917V11.87ZM34.5949 23.3C33.1749 23.3 31.9149 22.98 30.8149 22.34C29.7149 21.7 28.8649 20.83 28.2649 19.73C27.6649 18.63 27.3649 17.41 27.3649 16.07C27.3649 14.75 27.6549 13.54 28.2349 12.44C28.8349 11.34 29.6849 10.47 30.7849 9.83C31.8849 9.19 33.1549 8.87 34.5949 8.87C36.0349 8.87 37.2949 9.19 38.3749 9.83C39.4749 10.47 40.3149 11.34 40.8949 12.44C41.4949 13.54 41.7949 14.75 41.7949 16.07C41.7949 17.41 41.4949 18.63 40.8949 19.73C40.2949 20.83 39.4449 21.7 38.3449 22.34C37.2649 22.98 36.0149 23.3 34.5949 23.3ZM34.6849 20.66C35.8449 20.66 36.7549 20.23 37.4149 19.37C38.0949 18.51 38.4349 17.43 38.4349 16.13C38.4349 14.83 38.0749 13.74 37.3549 12.86C36.6349 11.96 35.6849 11.51 34.5049 11.51C33.3649 11.51 32.4449 11.95 31.7449 12.83C31.0649 13.71 30.7249 14.81 30.7249 16.13C30.7249 17.41 31.0949 18.49 31.8349 19.37C32.5749 20.23 33.5249 20.66 34.6849 20.66ZM45.255 9.23H48.435L48.465 11.75C48.845 10.91 49.445 10.22 50.265 9.68C51.085 9.14 52.045 8.87 53.145 8.87C54.565 8.87 55.655 9.17 56.415 9.77C57.175 10.35 57.685 11.17 57.945 12.23C58.205 13.29 58.335 14.67 58.335 16.37V23H55.095V16.46C55.095 14.72 54.925 13.47 54.585 12.71C54.245 11.93 53.545 11.54 52.485 11.54C51.885 11.54 51.275 11.73 50.655 12.11C50.035 12.47 49.515 13 49.095 13.7C48.695 14.4 48.495 15.22 48.495 16.16V23H45.255V9.23ZM69.0209 23.3C67.3809 23.3 66.0109 22.98 64.9109 22.34C63.8109 21.68 63.0009 20.81 62.4809 19.73C61.9609 18.63 61.7009 17.43 61.7009 16.13C61.7009 14.67 62.0009 13.39 62.6009 12.29C63.2209 11.19 64.0709 10.35 65.1509 9.77C66.2309 9.17 67.4509 8.87 68.8109 8.87C70.9309 8.87 72.5009 9.46 73.5209 10.64C74.5609 11.8 75.0809 13.44 75.0809 15.56C75.0809 16.1 75.0509 16.66 74.9909 17.24H65.0909C65.3109 18.46 65.7409 19.34 66.3809 19.88C67.0409 20.42 67.9509 20.69 69.1109 20.69C70.0709 20.69 70.8609 20.61 71.4809 20.45C72.1009 20.29 72.6709 20.07 73.1909 19.79L74.1809 22.1C73.6809 22.42 73.0009 22.7 72.1409 22.94C71.2809 23.18 70.2409 23.3 69.0209 23.3ZM71.9309 14.99C71.9509 13.75 71.6809 12.88 71.1209 12.38C70.5609 11.86 69.7609 11.6 68.7209 11.6C66.6209 11.6 65.4109 12.73 65.0909 14.99H71.9309ZM8.01 44.71L6.63 41.59L6 44.71L3.96 55H0.63L5.19 32.95H5.55L11.61 44.86L13.41 48.85L15.21 44.86L21.15 32.95H21.48L26.22 55H22.92L20.7 44.71L20.04 41.59L18.84 44.71L13.5 55H13.32L8.01 44.71ZM35.0559 55.3C33.8159 55.3 32.6659 55.01 31.6059 54.43C30.5659 53.83 29.7259 52.99 29.0859 51.91C28.4659 50.81 28.1559 49.53 28.1559 48.07C28.1559 46.63 28.4259 45.37 28.9659 44.29C29.5259 43.21 30.3159 42.37 31.3359 41.77C32.3559 41.17 33.5559 40.87 34.9359 40.87C35.7359 40.87 36.4859 41.01 37.1859 41.29C37.8859 41.57 38.4759 41.92 38.9559 42.34C39.4359 42.74 39.7559 43.14 39.9159 43.54L39.9759 41.23H43.0659V55H40.0059L39.9459 52.57C39.6059 53.29 38.9859 53.93 38.0859 54.49C37.1859 55.03 36.1759 55.3 35.0559 55.3ZM35.5959 52.6C36.7359 52.6 37.6959 52.21 38.4759 51.43C39.2559 50.63 39.6459 49.59 39.6459 48.31V48.1C39.6459 47.24 39.4659 46.47 39.1059 45.79C38.7459 45.11 38.2559 44.58 37.6359 44.2C37.0159 43.82 36.3359 43.63 35.5959 43.63C34.3159 43.63 33.3259 44.05 32.6259 44.89C31.9259 45.71 31.5759 46.78 31.5759 48.1C31.5759 49.44 31.9159 50.53 32.5959 51.37C33.2959 52.19 34.2959 52.6 35.5959 52.6ZM47.333 41.23H50.573V43.93C50.893 43.01 51.413 42.27 52.133 41.71C52.853 41.15 53.673 40.87 54.593 40.87C55.233 40.87 55.673 40.93 55.913 41.05L55.463 44.32C55.283 44.2 54.893 44.14 54.293 44.14C53.353 44.14 52.493 44.44 51.713 45.04C50.953 45.64 50.573 46.6 50.573 47.92V55H47.333V41.23ZM70.6542 55H66.8442L64.0542 50.5L63.2742 48.97L61.4742 50.92V55H58.3542V32.95H61.4442V45.04L61.3842 47.38L66.6342 41.23H70.6242L65.4342 46.99L70.6542 55ZM79.7435 55.3C78.1035 55.3 76.7335 54.98 75.6335 54.34C74.5335 53.68 73.7235 52.81 73.2035 51.73C72.6835 50.63 72.4235 49.43 72.4235 48.13C72.4235 46.67 72.7235 45.39 73.3235 44.29C73.9435 43.19 74.7935 42.35 75.8735 41.77C76.9535 41.17 78.1735 40.87 79.5335 40.87C81.6535 40.87 83.2235 41.46 84.2435 42.64C85.2835 43.8 85.8035 45.44 85.8035 47.56C85.8035 48.1 85.7735 48.66 85.7135 49.24H75.8135C76.0335 50.46 76.4635 51.34 77.1035 51.88C77.7635 52.42 78.6735 52.69 79.8335 52.69C80.7935 52.69 81.5835 52.61 82.2035 52.45C82.8235 52.29 83.3935 52.07 83.9135 51.79L84.9035 54.1C84.4035 54.42 83.7235 54.7 82.8635 54.94C82.0035 55.18 80.9635 55.3 79.7435 55.3ZM82.6535 46.99C82.6735 45.75 82.4035 44.88 81.8435 44.38C81.2835 43.86 80.4835 43.6 79.4435 43.6C77.3435 43.6 76.1335 44.73 75.8135 46.99H82.6535ZM90.4003 43.87H87.9703V41.23H90.4003V35.62L93.6703 34.9V41.23H96.8503V43.87H93.6703V55H90.4003V43.87Z" fill="#262626"/>
</svg>
