<svg width="46" height="32" viewBox="0 0 46 32" fill="none" xmlns="http://www.w3.org/2000/svg">
<path d="M45.2334 5.98047H41.464V17.6055H45.2334V5.98047ZM45.2334 21.4805H41.464V25.3555H45.2334V21.4805ZM37.6945 4.04297C37.6945 1.91172 35.9983 0.167969 33.9251 0.167969H3.76945C1.69625 0.167969 0 1.91172 0 4.04297V27.293C0 29.4242 1.69625 31.168 3.76945 31.168H33.9251C35.9983 31.168 37.6945 29.4242 37.6945 27.293V4.04297ZM33.9251 4.04297L18.8473 13.7305L3.76945 4.04297H33.9251ZM33.9251 27.293H3.76945V7.91797L18.8473 17.6055L33.9251 7.91797V27.293Z" fill="#C2B29F"/>
</svg>
