<svg width="33" height="38" viewBox="0 0 33 38" fill="none" xmlns="http://www.w3.org/2000/svg">
<path d="M18.39 19H9.14882C8.65863 19 8.18852 19.2002 7.84191 19.5565C7.4953 19.9128 7.30057 20.3961 7.30057 20.9C7.30057 21.4039 7.4953 21.8872 7.84191 22.2435C8.18852 22.5998 8.65863 22.8 9.14882 22.8H18.39C18.8802 22.8 19.3503 22.5998 19.697 22.2435C20.0436 21.8872 20.2383 21.4039 20.2383 20.9C20.2383 20.3961 20.0436 19.9128 19.697 19.5565C19.3503 19.2002 18.8802 19 18.39 19ZM20.2383 34.2H5.45233C4.96214 34.2 4.49203 33.9998 4.14542 33.6435C3.79881 33.2872 3.60408 32.8039 3.60408 32.3V5.7C3.60408 5.19609 3.79881 4.71281 4.14542 4.35649C4.49203 4.00018 4.96214 3.8 5.45233 3.8H14.6936V9.49999C14.6936 11.0117 15.2777 12.4615 16.3176 13.5305C17.3574 14.5995 18.7677 15.2 20.2383 15.2H25.783V17.1C25.783 17.6039 25.9778 18.0872 26.3244 18.4435C26.671 18.7998 27.1411 19 27.6313 19C28.1215 19 28.5916 18.7998 28.9382 18.4435C29.2848 18.0872 29.4795 17.6039 29.4795 17.1V13.3C29.4875 13.2624 29.4875 13.2235 29.4795 13.186C29.4638 13.0089 29.4201 12.8356 29.3502 12.673V12.502C29.2613 12.3066 29.1427 12.1271 28.999 11.97L17.9095 0.57C17.7527 0.418503 17.5713 0.296334 17.3735 0.209C17.3735 0.209 17.2811 0.209 17.2257 0.209C17.0435 0.100657 16.8427 0.029679 16.6342 0H5.54474C4.07418 0 2.66386 0.600534 1.62402 1.66949C0.584176 2.73845 0 4.18826 0 5.7V32.3C0 33.8117 0.584176 35.2615 1.62402 36.3305C2.66386 37.3994 4.07418 38 5.54474 38H20.3307C20.8209 38 21.291 37.7998 21.6376 37.4435C21.9842 37.0872 22.179 36.6039 22.179 36.1C22.179 35.5961 21.9842 35.1128 21.6376 34.7565C21.291 34.4002 20.8209 34.2 20.3307 34.2H20.2383ZM18.39 6.479L23.1585 11.4H20.2383C19.7481 11.4 19.278 11.1998 18.9314 10.8435C18.5848 10.4872 18.39 10.0039 18.39 9.49999V6.479ZM28.6848 34.751C28.597 34.6693 28.5044 34.5931 28.4075 34.523C28.2044 34.3873 27.9789 34.2907 27.7422 34.238C27.4452 34.1769 27.1383 34.1917 26.8482 34.2811C26.5582 34.3706 26.2939 34.5319 26.0788 34.751C25.9055 34.9276 25.768 35.1377 25.6742 35.3693C25.5804 35.6008 25.532 35.8492 25.532 36.1C25.532 36.3508 25.5804 36.5991 25.6742 36.8307C25.768 37.0622 25.9055 37.2723 26.0788 37.449C26.423 37.8 26.8877 37.9979 27.3725 38C27.6768 38.0015 27.9767 37.9259 28.2457 37.7797C28.5147 37.6334 28.7444 37.4212 28.9145 37.1618C29.0845 36.9024 29.1897 36.6039 29.2205 36.2927C29.2514 35.9815 29.207 35.6673 29.0914 35.378C28.9909 35.1471 28.8535 34.9351 28.6848 34.751ZM18.39 26.6H9.14882C8.65863 26.6 8.18852 26.8002 7.84191 27.1565C7.4953 27.5128 7.30057 27.9961 7.30057 28.5C7.30057 29.0039 7.4953 29.4872 7.84191 29.8435C8.18852 30.1998 8.65863 30.4 9.14882 30.4H18.39C18.8802 30.4 19.3503 30.1998 19.697 29.8435C20.0436 29.4872 20.2383 29.0039 20.2383 28.5C20.2383 27.9961 20.0436 27.5128 19.697 27.1565C19.3503 26.8002 18.8802 26.6 18.39 26.6ZM27.3725 20.9C26.3986 20.8993 25.4417 21.1624 24.5981 21.6627C23.7546 22.163 23.054 22.8829 22.5671 23.75C22.4457 23.9671 22.3671 24.2066 22.3358 24.4549C22.3045 24.7032 22.3211 24.9554 22.3846 25.1971C22.4481 25.4388 22.5573 25.6653 22.7059 25.8636C22.8546 26.0619 23.0398 26.2282 23.2509 26.353C23.4621 26.4777 23.6951 26.5585 23.9366 26.5907C24.1782 26.6229 24.4235 26.6059 24.6586 26.5406C24.8937 26.4753 25.1141 26.3631 25.307 26.2102C25.4999 26.0574 25.6617 25.8671 25.783 25.65C25.9455 25.3607 26.1793 25.1206 26.4608 24.9538C26.7423 24.7871 27.0615 24.6995 27.3865 24.7C27.7114 24.7005 28.0304 24.7891 28.3114 24.9567C28.5924 25.1244 28.8255 25.3652 28.9871 25.655C29.1487 25.9447 29.2331 26.2732 29.2319 26.6072C29.2307 26.9412 29.1438 27.2689 28.9801 27.5574C28.8164 27.8459 28.5816 28.085 28.2993 28.2504C28.0171 28.4159 27.6974 28.502 27.3725 28.5C26.8823 28.5 26.4122 28.7002 26.0656 29.0565C25.719 29.4128 25.5243 29.8961 25.5243 30.4C25.5243 30.9039 25.719 31.3872 26.0656 31.7435C26.4122 32.0998 26.8823 32.3 27.3725 32.3C28.8431 32.3 30.2534 31.6994 31.2932 30.6305C32.3331 29.5615 32.9173 28.1117 32.9173 26.6C32.9173 25.0883 32.3331 23.6384 31.2932 22.5695C30.2534 21.5005 28.8431 20.9 27.3725 20.9ZM9.14882 15.2H10.9971C11.4872 15.2 11.9574 14.9998 12.304 14.6435C12.6506 14.2872 12.8453 13.8039 12.8453 13.3C12.8453 12.7961 12.6506 12.3128 12.304 11.9565C11.9574 11.6002 11.4872 11.4 10.9971 11.4H9.14882C8.65863 11.4 8.18852 11.6002 7.84191 11.9565C7.4953 12.3128 7.30057 12.7961 7.30057 13.3C7.30057 13.8039 7.4953 14.2872 7.84191 14.6435C8.18852 14.9998 8.65863 15.2 9.14882 15.2Z" fill="#C2B29F"/>
</svg>
