<svg width="30" height="30" viewBox="0 0 30 30" fill="none" xmlns="http://www.w3.org/2000/svg">
<path d="M27.0432 17.1429H16.642V27.8571C16.642 28.4255 16.4228 28.9705 16.0327 29.3724C15.6426 29.7742 15.1134 30 14.5617 30C14.01 30 13.4809 29.7742 13.0908 29.3724C12.7006 28.9705 12.4815 28.4255 12.4815 27.8571V17.1429H2.08025C1.52853 17.1429 0.999412 16.9171 0.609291 16.5152C0.219169 16.1134 0 15.5683 0 15C0 14.4317 0.219169 13.8866 0.609291 13.4848C0.999412 13.0829 1.52853 12.8571 2.08025 12.8571H12.4815V2.14286C12.4815 1.57454 12.7006 1.02949 13.0908 0.627628C13.4809 0.225764 14.01 0 14.5617 0C15.1134 0 15.6426 0.225764 16.0327 0.627628C16.4228 1.02949 16.642 1.57454 16.642 2.14286V12.8571H27.0432C27.5949 12.8571 28.124 13.0829 28.5142 13.4848C28.9043 13.8866 29.1235 14.4317 29.1235 15C29.1235 15.5683 28.9043 16.1134 28.5142 16.5152C28.124 16.9171 27.5949 17.1429 27.0432 17.1429Z" fill="#D8D8D8"/>
</svg>
