<svg width="37" height="39" viewBox="0 0 37 39" fill="none" xmlns="http://www.w3.org/2000/svg">
<path d="M26.6969 0.0560303C27.2416 0.0560303 27.7639 0.27845 28.149 0.67436C28.5342 1.07027 28.7505 1.60724 28.7505 2.16714V4.27825H32.8577C33.947 4.27825 34.9917 4.72309 35.762 5.51491C36.5322 6.30673 36.9649 7.38067 36.9649 8.50047V33.8338C36.9649 34.9536 36.5322 36.0275 35.762 36.8194C34.9917 37.6112 33.947 38.056 32.8577 38.056H4.10722C3.01791 38.056 1.97323 37.6112 1.20298 36.8194C0.432723 36.0275 0 34.9536 0 33.8338V8.50047C0 7.38067 0.432723 6.30673 1.20298 5.51491C1.97323 4.72309 3.01791 4.27825 4.10722 4.27825H8.21443V2.16714C8.21443 1.60724 8.43079 1.07027 8.81592 0.67436C9.20105 0.27845 9.72339 0.0560303 10.268 0.0560303C10.8127 0.0560303 11.335 0.27845 11.7202 0.67436C12.1053 1.07027 12.3216 1.60724 12.3216 2.16714V4.27825H24.6433V2.16714C24.6433 1.60724 24.8597 1.07027 25.2448 0.67436C25.6299 0.27845 26.1523 0.0560303 26.6969 0.0560303ZM32.8577 8.50047H4.10722V33.8338H32.8577V8.50047ZM24.2819 13.5228C24.6692 13.1383 25.1879 12.9255 25.7264 12.9303C26.2648 12.9351 26.7799 13.1571 27.1607 13.5485C27.5414 13.9399 27.7574 14.4694 27.7621 15.023C27.7667 15.5765 27.5597 16.1098 27.1857 16.5079L17.0367 26.9431C16.8441 27.1413 16.6154 27.2986 16.3636 27.4058C16.1118 27.5131 15.842 27.5683 15.5694 27.5683C15.2969 27.5683 15.027 27.5131 14.7753 27.4058C14.5235 27.2986 14.2948 27.1413 14.1021 26.9431L9.7608 22.476C9.38672 22.0779 9.17973 21.5446 9.1844 20.9911C9.18908 20.4375 9.40506 19.9081 9.78582 19.5166C10.1666 19.1252 10.6816 18.9032 11.2201 18.8984C11.7585 18.8936 12.2773 19.1064 12.6646 19.4909L15.5705 22.476L24.2819 13.5228Z" fill="#C2B29F"/>
</svg>
